/* XPM */
static char *result[] = {
/* columns rows colors chars-per-pixel */
"50 50 66 1 ",
"  c #232323",
". c gray7",
"X c gray1",
"o c gray9",
"O c #1B1B1B",
"+ c #040404",
"@ c #111111",
"# c #252525",
"$ c #060606",
"% c #070707",
"& c #313131",
"* c gray2",
"= c gray18",
"- c gray6",
"; c #1D1D1D",
": c #020202",
"> c #181818",
", c #090909",
"< c gray19",
"1 c gray17",
"2 c gray4",
"3 c #222222",
"4 c #161616",
"5 c #202020",
"6 c gray5",
"7 c #2D2D2D",
"8 c #010101",
"9 c gray16",
"0 c gray3",
"q c gray10",
"w c #101010",
"e c gray13",
"r c #1E1E1E",
"t c gray12",
"y c #272727",
"u c #282828",
"i c #191919",
"p c gray15",
"a c gray14",
"s c gray11",
"d c #151515",
"f c #131313",
"g c #0C0C0C",
"h c #2C2C2C",
"j c gray8",
"k c #0E0E0E",
"l c #0B0B0B",
"z c #2A2A2A",
"x c #323232",
"c c #2F2F2F",
"v c #343434",
"b c gray20",
"n c #373737",
"m c #353535",
"M c #393939",
"N c gray22",
"B c #3E3E3E",
"V c #3A3A3A",
"C c gray21",
"Z c #3C3C3C",
"A c gray23",
"S c gray26",
"D c gray25",
"F c gray24",
"G c #3F3F3F",
"H c #464646",
/* pixels */
" .XoO+@#$%&%*=-*;;:> +,<X+12*34:45:678%90*5.:q4Xwe",
"re45r453O5rtq yo uipas att aO #4pa> risr;o;td;sftq",
"arg;36qu.49o@utw u639@Ohjd1s@p36apkspkf#d@3qltsgq5",
"pd:i3:@z*0<%X<.:ee:ou$gx**c-Xao:s +-=+%7,%af:OiX.3",
"rpta5ep3ayszpe7 #h =##h5z93=p#7euaehs3pOy5r s5tOeq",
"pO2r52izk.=.g<Ol#p0tzl4c-k&o2p325#2qzl-1fg i05q04e",
"yi%s3%416kcw2<i2ap%r1lwvllbj0p5$ea%f=,gh-ga4$5i%j3",
"rp;a5ty3 urha 73ph &#ac 1uy< a7e1# hs  ;ptr3sreiaO",
"p>+;#$470gbg$b4$a#*sh$wn00vf+yO+r#+.&$27g0#o$5q0d ",
"uO2ty0q76@<fl&;2uh,3c64n-@mi6h ,au2>cg-cf2us%5O$q ",
"rusyasype93ua <ehx3b1php7#1< y<eh9e95aa;y55 ;e O ;",
"9oXq *.c%$M%XNf*a :>cXkB+*V6*7qX5#+@b+0<2+y4+;O8.p",
"a3k pk5=dqh;j=u@17@1co5vq4C fczwzzj31d>1ijpr-#twst",
"paf#pjahOrheicu>h=4==Oyctr<9i1h4hzqpyq;y5>#ed3t.t3",
"9o:O#Xf<*%Z%XAj+pa:ix+gS+*ZkX=q8ru+kMX$v,Xuj:OOX@y",
"ez>ypqu9e pu3p&r7xtvza<=ypc1ehc;<z;7 r 3 spa>a o#t",
"y3f yf hiq7ti<9d1cd=&q CrOC#>=hd11da7jsusdut@3e-53",
"uiX;y*o&,2MlXZo*yy*;x$wD,%V.*1r$590fv%%x22uo$eO0fu",
"azeu#ahazh5&9#npcmuM=7mz&<7Cz1b#vz#xap15u33y;ae>u;",
"75,31ls<-@n4lN3g=clym-iD.-BrgcukyhlOvl-bdkuq23;2o#",
"zt%t9%q<2wMw0A;017$ m24B6lFq,<#0u1,oC,6bwl9q%3r%op",
" 1pzpy7p=bem<uM=bCcD&mF7MvcVc7C1bh1v3zh3hua9a#arps",
"zqXruX>m%lAl+Ai+9hXtn$wS,0Gf$&rXr7+fM*0mg$1oXet+du",
"ze23y2t&@dbikC#6c<g1Nw;G4.Zrw&9,u=6tbw@=469r235lOa",
"3zt9#59#9z czymu=m9Z&7M1<c7muhb5b9av #15u3 y;a ipr",
"9o$Oa$dc%,B0+Zf+zy+Ov$gH$+GwX7t*rz*wN+$b,,zj+5q0-a",
"9a.phjacqr&a>&1o=bo&mOyV5rVuic7471o#hqOcrdye@a -e#",
"9ydpy>ph;51p;c<qhbsvxr1&# mhsc&ochiu9qt9ei93d33f5e",
"z4X;pXf<$0F%:NdXyuXqb*gD$$Z-+1r+5u+-NX$b,$9o+;i*fy",
"e9O#pruz3pu1 9x5=x5v<#7=u9<<a77t&951#ep# ;aaq  o5r",
"z52e#2Oc-.c46begu<lp&@iVj.N;k1u,u1ls<g@7>6ys2et2Oa",
"zq+;p+4x,,Ml*no+p9X;&%wF%%V.$h;83u$.v$2bl$9d+t;+jy",
"ez#y#uh hct<c3v=1c=VzbC x<ybc1xuc#z&;9zr9ytp3 e #q",
"9;$tp0i<l-mk2vO%yz*5<gjN6lNo%15$39l4xl6<@2y>,tt04#",
"9;Xru*o&0kng0mi*p9*;c%dM2%Vf%7r+59*ob%l&-,y4*e;X>p",
";9eu# h3y=;x9evu1<9np7&3<caC1ucy<#z=s99Ohatp3t3rpi",
"uo:s3+d702b6+C4+##+sh%kN0%n.%zs+ta*j&$l7l%yd+5O+j ",
"p5lt gs1wdc>6=3691ga7-sx4.mrk7a6py6s7-d14wpOl5;l>3",
"tus#3ry 3u5z33<tuc xyph 9yy7#a1t1a51eeae e3 Oeedus",
"udXO5+jz$0b0:x.*e X4z+lM+Xml:ps:4yXk&+%72+afXr>*-3",
"5#. a4eai;ae>#u4uudzu> u;s9#4yyjypi5a>q ;>3t.r;f;s",
"5r@te@ry4qpO493oppf#ud5z>O9t4y @p#.5#jiaid3Owts6Ot",
"#d8>5:@9*%c,X<@+ tXd9+,m**<6+piXqeX6=X%7,*afXqiXw3",
"t5ie5Oeerttat3y;auO9ptp e3au5 #ia3qpr;5s5qrt4r;4tO",
"pql;5giyw@9d61sg3#gtuko=@w7i-#tl5eg>y6.#f6eqlrq0>t",
" jXotXf1*,=08cf:;t:oy+lx$+xg+ai8q5X-1X%h%$3.8O>X@e",
"O i5rs3rrai#5sysep;z55prae3u5ea;ae5#qr3qesOrissiro",
"e4%>;$j#22zg$1d$re*iy0-cl,9@05O%Oe$fp,lpg,5j$Oo*@;",
"54*it+jp2696%940r *i#2.zl2y@$es+Oe%.u%gag,5d*O>+fr",
"o3srrs5>a#iu >ut aeurp#qy3Oy3;pt#53#i 3o tor;iOos4"
};
