/* XPM */
static char *result[] = {
/* columns rows colors chars-per-pixel */
"50 50 83 1 ",
"  c #020202",
". c #0B0B0B",
"X c #10100F",
"o c #141414",
"O c #1C1C1C",
"+ c #201F1F",
"@ c #20201F",
"# c #242424",
"$ c #282727",
"% c #2B2B2B",
"& c #343434",
"* c #383736",
"= c #383837",
"- c #383738",
"; c #3C3C3B",
": c #42413E",
"> c #403F40",
", c #434343",
"< c #494847",
"1 c #4C4C4C",
"2 c #504F4F",
"3 c #51504F",
"4 c #504F50",
"5 c #545453",
"6 c #585757",
"7 c #5A5857",
"8 c #5C5C5C",
"9 c #605F5F",
"0 c #61605F",
"q c #646463",
"w c #686766",
"e c #696867",
"r c #6C6B6B",
"t c #706F6E",
"y c #71716F",
"u c #747474",
"i c #787776",
"p c #797877",
"a c #787778",
"s c #7C7C7C",
"d c #807F7F",
"f c #80807E",
"g c #817F80",
"h c #848383",
"j c #888687",
"k c #898887",
"l c #898788",
"z c #8C8B8B",
"x c #908E8E",
"c c #91918F",
"v c #918F90",
"b c #949393",
"n c #989797",
"m c #999897",
"M c #999798",
"N c #9C9C9C",
"B c #A09F9F",
"V c #A2A19F",
"C c #A19FA0",
"Z c #A4A3A3",
"A c #A8A7A6",
"S c #AAA9A7",
"D c #A9A7A8",
"F c #ACABAB",
"G c #B0AFAE",
"H c #B0B0AF",
"J c #B1AFB0",
"K c #B4B3B2",
"L c #B8B7B6",
"P c #B9B8B7",
"I c #BCBBBA",
"U c #C0BFBE",
"Y c #C1C0BF",
"T c #C0BFC0",
"R c #C5C4C2",
"E c #C8C7C6",
"W c #CAC9C7",
"Q c #CDCCCA",
"! c #D1CFCE",
"~ c #D2D1CF",
"^ c #D5D4D3",
"/ c #DAD9D7",
"( c #DBDAD8",
/* pixels */
"NZCNzNNqrq5r4<<688q5qqqquq85qrgusuttsuslzssbhcchZb",
"NDDNhuzq8r94,158qq88qqrqqq5qqrqrrqqqurrrsrzKCbNcll",
"DKHCuuv56b8<>,4CrqqruNz8qqqac8qrqqmrq95qmqsTHHHDbz",
"AAbqwbN5,r&8,>4f>quuuh6qqq8q81rq8eu,9999s>hTTNzqhN",
"MNvagNN6<,184484qusshuraqrqr8sgrrgq6qqqeq8kQHbmhvz",
"zDbMzBD8u4511q9uushhfszhaa8uhbbhhzhsurtuarfQDNHKZz",
"KFMlbvDwhN5658s9fcusuqqssrqquashxurue8ruq9sETTWETZ",
"64<;<451azb5.9l.rK.4zo,K%OD-@Hr.Hq.Mt.uu456855144<",
"utrr4thurbuuO8h 8z &p.&KOXD%oF1 S4 ze 019499e$,5<1",
"agblqr8aaF6urrh 1z.;g.&FOXN%oD1 N4 xe<q5Z4rr&;ku95",
"eur4tg.5sqqrurr.6n >x.&ZooZ$oC1 N5 caq<<48r.1811qr",
"qetqth%sqzsq59r>sC-aA,qF1,Nq8Rg-Dj-a944qta=$ersyu9",
"qettgzqMhrrq9rgczZLILFADNbbAPRRPKKsr808r5;uhprasuq",
"teatlb9;qf,rsuazz5Lz,Nl&hp%kZ>hU<u56qquq&==mu9uxgr",
"uquhgg5 %NO-hrgzzjl1 tr qe yV ,U8a8rrguOs# Vhzczgz",
"8qbCrl5 $HO.qvqHqhb, p8 8u tb >VcrPyzuooD$ VNbFzhv",
"tte;9s6 $NOoq0z5-ubN#r6 8t qz.8ss8>8u&XoF# DbNa,hz",
"rrsarze.=A$#g;2uruhMbsu sf.kZrfhaeut$t&@C-XFhNjssa",
"trhssxsCNCjmKLNthhadmVbbZNZPNbthhuu;tDmZHIHLfzpuaa",
"aujhsb>Zb<jz5ZY,9hdghbbh49ZMsuhssrOtz8xF6HT8egherh",
"trhhzc.h< h8 sm >tMjsauuOOstyussaO a8 8f qb qhtqsb",
"rhbZsl.t> s8 uz 8b8zzZhur18zNuae;% e2 8d 9b rjbhsb",
"szb8qg.u, gq ic.5C.9zu>q5q4s4tsX7, q5 qc 9N 0sa,zm",
"zVNhgp.h1 hr.pc 9N ;uaq04qtythO h4 u0 uV rF 8hzzNN",
"ZczszzqNmuNHNFYcDPZIFru58ursr,hsNzrNNhI~zYWbZmbNbN",
"hhuszzuzhbzNINbPHm^Pzhe555qau9CFhbFzbELAWKN(HPZbbN",
"utaszzaoOV#OC&OU=.Qrrcr8188tzb8b.%K@%A;@K, PHHNzbz",
"qrzNzZh.oK#oN%o!& KCbFh8rq9bKDZs #T@$K%oI=.HTHHbgb",
"rshesZc.oK#om%oW&.NNhz6e8<sbrsCb#$QO@I&oI= HHZc8zb",
"uzbaNHz.oT%om%O~=tbbzgru&85Dagfmz,KO#A&oP> FFmsuhz",
"skZCDFCruQayIch/ZNzmbzs&hH8uNsfzkNViiFiy/SeYZcuhsa",
"smHAFHZ!RZPTTIWbbfsazs-zDTFgqzfzsmWAQFP(((~RFzurqq",
"tzDNZPOKq.Vp.fbhuutuaO<J#>D-OrcxzbHHuobL#mP.pjrqrs",
"rkbNmK.N1 Vq rxzquaz% <LXOD++mrSbZDZN#sV yb uzgitk",
"kbbckFXN6 Ne8cfF1iu%6 ,GoOF+OH%rKxLuSDzb ed thbuss",
"hNzrzb.N5 bNjaa9who*s.;N.OI$+U% hKquNNSu qh qse8as",
"fNZZCN&Kb>Zbsu8sh,%uC<uD;q/85Rw,VzFNjzDK%sn#abhchg",
"hNCbZPbHKDZuraru,sSFGBBDZQIIKP!QQFjbxbNbbzbzzNszhz",
"mCbmDTN,hNhresr,==Hj&ls-MN%zn&c^5eHqFZbcjb1xNbgzhh",
"mNZDHEhuFbzussoh$ S2 s8 hx wh 7Q.@QOrHxfanAgzzhhsa",
"hbZKZPNNZ^8taO.Z$ A1 dq zz rx 8~.@E@XsVuFuNCuhAzrh",
"fch2hhuut;1q,OXH$ L9 k0 kb yZo5W @~@@hqbq4bbFuq;uh",
"FKIPHhbu9r8%z1OF,oTa.ms.VSXsZOtR@&R%%Z>8AMbFFNzxZF",
"R~TTPDHr89>zEQFDLR^IP/RSYQ!EHZKRLKPHbHHhsFCFzcMxZE",
"KHNzNNKr5>zEQWLIQ(~TQ/EPPW~IHNNTTDDHbFFlrCZvhNCZDK",
"VNzjNFPr&sCNmcbNFZNZNZbmzFZVzzbNNllshhsrrthvNCHKIK",
"bzNVNFIqqTkhhhzTzxbbcZmzzjzmZhbbhsKssutsHrtNMHEHKK",
"hsa4sATuuq9uhzzs<zMNxa<tzzkp48zbutq6ushjs;ebcFNeZC",
"jszhlxJaughzbNagscZbMMksbzzhsuzbsuzbbzbsgsgHCCHKKF",
"zzhszZIrupzCNbrzgbbzMMZbbbzssshhbzlzNNcuhucTZDPKZP"
};
