/* XPM */
static char *bb27ebaa74294606cc71c30a34a36826HkBabWiL7d2tocI3[] = {
/* columns rows colors chars-per-pixel */
"50 50 191 2 ",
"   c #020202",
".  c #070806",
"X  c #090A06",
"o  c #0D0E09",
"O  c #0E1003",
"+  c #0E110A",
"@  c #121406",
"#  c #161A07",
"$  c #12140C",
"%  c #15190D",
"&  c #191C0D",
"*  c #151511",
"=  c #191611",
"-  c #171A10",
";  c #1B1D12",
":  c #1A1D18",
">  c #1B210E",
",  c #1E2213",
"<  c #1F2219",
"1  c #1D2815",
"2  c #212415",
"3  c #282714",
"4  c #242917",
"5  c #292A17",
"6  c #23251A",
"7  c #292719",
"8  c #262A1B",
"9  c #2A2D1C",
"0  c #2D311E",
"q  c #26321C",
"w  c #31301E",
"e  c #262B23",
"r  c #2B2D23",
"t  c #2A2D2A",
"y  c #302F22",
"u  c #2E3123",
"i  c #2C312A",
"p  c #323424",
"a  c #353A26",
"s  c #393B26",
"d  c #323429",
"f  c #363A2A",
"g  c #3A3D2B",
"h  c #353D33",
"j  c #3B3E31",
"k  c #3A3D38",
"l  c #343532",
"z  c #3D412D",
"x  c #37432A",
"c  c #3D4232",
"v  c #3E4830",
"b  c #374539",
"n  c #3C453C",
"m  c #3C4B3E",
"M  c #364437",
"N  c #41442E",
"B  c #424534",
"V  c #454A34",
"C  c #494C36",
"Z  c #444539",
"A  c #484739",
"S  c #464A3B",
"D  c #4A4D3C",
"F  c #43503F",
"G  c #4D513D",
"H  c #51543E",
"J  c #55593F",
"K  c #374543",
"L  c #3B4744",
"P  c #3D4C45",
"I  c #3B4D4B",
"U  c #444C44",
"Y  c #4C4D42",
"T  c #424E49",
"R  c #514F42",
"E  c #455243",
"W  c #4E5242",
"Q  c #4F5945",
"!  c #42554E",
"~  c #4C554B",
"^  c #4C5849",
"/  c #525543",
"(  c #555945",
")  c #595C46",
"_  c #545749",
"`  c #555A49",
"'  c #595D4B",
"]  c #4A5752",
"[  c #415855",
"{  c #4B5C54",
"}  c #425C5B",
"|  c #4D5F5B",
" . c #425451",
".. c #5B5D52",
"X. c #56604D",
"o. c #5D614D",
"O. c #5D6045",
"+. c #4E645F",
"@. c #5E6352",
"#. c #52655B",
"$. c #5D675A",
"%. c #62654D",
"&. c #68654F",
"*. c #696B4F",
"=. c #626553",
"-. c #656A55",
";. c #686C55",
":. c #646659",
">. c #656B5B",
",. c #6A6D5B",
"<. c #6E7156",
"1. c #6D725C",
"2. c #72735E",
"3. c #4A6463",
"4. c #5C6B62",
"5. c #516B6E",
"6. c #536461",
"7. c #536E72",
"8. c #5A7476",
"9. c #6C6E60",
"0. c #606F68",
"q. c #636D60",
"w. c #637062",
"e. c #6E7262",
"r. c #63736A",
"t. c #68766D",
"y. c #6E7A6D",
"u. c #727564",
"i. c #747965",
"p. c #7B7B66",
"a. c #747669",
"s. c #757A6A",
"d. c #7A7D6C",
"f. c #647575",
"g. c #667871",
"h. c #6C7C76",
"j. c #647B7A",
"k. c #687F7C",
"l. c #6A7774",
"z. c #727F71",
"x. c #7C7E70",
"c. c #807F6B",
"v. c #7C816C",
"b. c #7D8272",
"n. c #778479",
"m. c #7C8875",
"M. c #82856F",
"N. c #818573",
"B. c #848975",
"V. c #828678",
"C. c #868A7B",
"Z. c #898C7C",
"A. c #5A7D82",
"S. c #658182",
"D. c #6C8483",
"F. c #6F8884",
"G. c #65868D",
"H. c #68878E",
"J. c #6D8A8C",
"K. c #738583",
"L. c #748A84",
"P. c #798C85",
"I. c #708888",
"U. c #7F948E",
"Y. c #668C95",
"T. c #6A8E93",
"R. c #698E99",
"E. c #67909D",
"W. c #6C939A",
"Q. c #759292",
"!. c #71939B",
"~. c #7B9899",
"^. c #6896A3",
"/. c #6B99A6",
"(. c #77A7B4",
"). c #7AA6B4",
"_. c #7DA8B6",
"`. c #7DACBB",
"'. c #8C9181",
"]. c #919685",
"[. c #919887",
"{. c #819793",
"}. c #839891",
"|. c #9AA08E",
" X c #9EA392",
".X c #A2A694",
"XX c #A8AB9C",
"oX c #A5AC9B",
"OX c #ADB29F",
"+X c #ADB1A2",
"@X c #B1B4A3",
/* pixels */
":.' o.@.@.@.o.o.o.' o.@.o.=.:.=.o.o.=.o.o.o.' o.o.o.o.o.o.o.o.o.( ` ' o.X.o.o.o.o.@.o.' o.@.W ( Z $ ",
",.W 8 0 0 a a x s x g g g x z x x g g g g x g a f a f f x g f g s a a f g s a a a a f a s x o.( v $ ",
">.S # , 4 5 9 0 q 0 0 0 0 0 0 u u a a a g a g z x f g g g x g f f x a a a a g a a a u 0 q w ;./ j $ ",
":.W u z v v B v B z Z G G G D G G / ( ( ' ' =.o.' ' ( o.o.' X.( ' ' ` ` ( ( ' ( ( G G C B C ,./ j * ",
"` o.%.-.:.e.u.>.-.:.,.b.N.d.d.d.b.b.N.N.V.V.V.d.a.i.s.v.p.u.i.u.u.u.s.i.u.u.s.a.i.1.1.u.1.1.' D c - ",
": V z V S D D S S D V S D D D D G G D H / / W Y G W D S Z c B Z B Z B v g c j v Z x B z c v x g d + ",
". , 2 , 4 , 2 - ; ; ; ; 2 2 2 2 , , - ; ; 2 3 9 r 5 , , > & & - - ; , ; , - % % * , , ; 2 , , > + . ",
"  % # # # % % o o $ % = & ; ; ; $ O $ % $ = ; ; , < % % % % $ + - - - ; 6 - + o X @ # % & # # %     ",
"  , > # & , - $ - 6 e e e t i r e ; ; ; = 6 r 6 6 i 8 ; 6 8 6 6 t e e t t i < + o % 3 & - > > #     ",
". u > O > 6 , $ , f k L L L L U S p 8 5 7 d k r d Z d 3 8 p d b U L K I L T M < $ 7 0 + O , 1 , .   ",
". x > @ 9 8 6 o = r n l.8.7.j.| b i 8 f j D _ k Z ..Y d d p p h ] f.7.7.8.{ i < $ r a & $ p 4 ,   . ",
". z 2 > f r 5 o r Y h.A.!.R.H.I.4.E B G C Y @.n U :.` A H ( / $.h.I.R.W.H.F.P i + u x 1 1 M 9 4     ",
". g 4 4 V p 3 o 7 U K.H.).).R.~.g.W G o.G J $.S U e.@.G &.%.H >.L.!._.(.!.Q.] t $ u x q r S w 2     ",
". B 0 q G a 3 o 6 U f.G.).`.W.Q.r.E H %.J ( @.v R i.=.J <.%.C $.8.Y.`.(.W.J.] t $ p z q r D p 2     ",
". Z u u W a 9 o y ~ 6.8.E./.R.A.w.' J %.G H ..Z R d.=.J <.*.o.w.+.S.^./.T.n.~ l = a V p d H a 8     ",
". Y s a Q f 9 o e Z K 5.Y.R.T.3.{ &.H O.J ' :.A Y a.-.) <.%.J X.I 7.Y.W.S.} U l ; g F x f _ d 8     ",
". / z a ` x 9 + ; j h I [ 3. .P S S s C D o.,.Z A a.:.( H V N C b I I 3.[ P k r = j H g g _ s 6     ",
". ( s z ` c 8 + 6 Y _ S P T b ^ X.( V z N @.,.c A a.,.D z N G %._ S I ! m Q Y d = g _ g B ( s 7     ",
". _ g B ' S i + e =.u.' ( W / u.v.%.H V j =.9.Z Y e.,.R N N ) p.u.' _ W ` u.:.d % j ( g S X.z 8     ",
". / g G =.W i + < _ u.p.&.%.2.M.2.H C ) _ :.9.B A a.9.` H V G ;.p.2.%.%.p.c.' e - j ' B Q =.F u     ",
". / a H -.W t * , d ) c.2.c.p.;.H C X.H A -.e.Z S a.e.W V H C C &.c.p.p.p.=.B 7 < j ` x / -.S q     ",
". _ N ( 1.W r $ ; Z H ( %.-.%.H H G %.o.H ,.u.Z D a.,.Y N ( J H J J &.&.) H j e < j ( B ' ,.V 8     ",
". ( V ( u.D r $ ; B / V V V N N C C X.-.' 9.a.Z Z e.9./ H J V H G C B C N B g 8 - c ' C o.e.B 8     ",
". ( V ( u.D u o & d D B N z 5 a x v H -.=.u.d.Z j a.u.' ) H N N G V N g 9 p d 6 - c ' S ' e.B 9     ",
". ( V H u.G u $ 6 p g z O.D 5 5 p N N =.,.s.x.Z Z a.u.:.o.H C B g N %.D 3 3 p 6 - h ' C ( u.S r     ",
". ' B ( i./ i - l ` ( D &.A 5 s ) -.J =.,.x.x.Y Z a.a.=.) ) 2.2.( G =.B 9 a / l < g ' B ( 1.G 8     ",
". ( B ) i.( u $ f :.=.( o.D 5 N ;.p.) ' ,.d.c.Z Z a.u.' ( H 2.M.%.G ;.B 0 Z ' Z < h O.v o.i.D 9     ",
". ` N %.v._ d $ d @.-.H &.G 0 N -.1.( o.,.d.b.Z Z a.e...H G ;.p.&.J ;.S p c ' Z 2 j X.V *.v.G 9     ",
". ' N -.b.` u $ e R ' B ) H 5 a H ) C %.,.d.d.A Z a.e.=./ C %.=.J V %.C 0 d Z d ; c ' V <.v.G u     ",
". X.N %.B.` d + 6 d B g C V 5 w a s g ) ,.d.N.Z k a.,.' ( V C V N N B B 5 0 r 7 % j o.A 1.v.E 9     ",
". ' z X.b._ f + 2 g J G z w 5 z C N C ;.:.a.V.D A a.,.' ' J C H ( H p a 0 z g 6 & c o.Z @.v.G r     ",
". ' v O.N.Q d * 6 j H V N V s B J C ) -._ 9.c.A Z e.:./ ) *.G G H C N B s B Z 9 ; c X.B o.b.D r     ",
". ' V / N._ f - 6 f G o.@.-.o.( G C ( %.( u.c.U j 9.:.A G ;.( V H %.=.=.X.W v 8 , c ' V ' b.G u     ",
". ` V G v.` j - 3 d ' i.v.b.v.1./ C H =.=.i.N.Z j 9...B V %.J V &.i.b.v.v.-.c 3 6 B ' S ( b.W f     ",
". ' V G m...c - 5 z u.e.y.n.n.b.-.C ) ;.' u.N.Y j q.@.S G O.J J v.i.y.m.b.v./ 7 ; B ' S _ m._ d     ",
". ( N G B.@.j - 5 W 1.>.t.g.n.v.2.( o.%.G i.V.D j :.@.B J <.%.o.i.>.t.n.y.y.o.9 2 z _ V _ '.` d   . ",
". _ V C B.@.k % 1 V X.w.P.P.n.>.@.D N H / p.C.A j :.@.f s A G ( @.r.P.P.y.$./ r 2 B ( v ^ B.' a X   ",
"  / C V N.-.c - 4 x m 4.U.}.y.X.H V z J ( p.V.Z g :.) f z V G Q ^ r.U.U.y._ S r u G ( V G N.' f :   ",
"  W G C M.=.x , 4 M b #.n.L.w.Q / G C <.o.u.x.V f &._ N ( o.H Q m #.F.L.4.~ Z d B %.O.F H N.' f e   ",
". Y ' =.v.' g 8 4 S m m I #.Q X.%.( o.i.o.u.d.B s ' R A -.=.G ( F m +.#.^ ` W j ` e.X.o.;.p.' d l   ",
". v @.e.1.E g u 4 v j c b E E / ) D ) u.( ;.p.A p _ D D u.;.H / x M m ^ Y R D g @.d.=.e.s.,./ a k   ",
". o.e.i.1.$.@.Q p D R D D ( ( G o.) H ;.( -.u.j w W D Z ,.=./ %.H G E _ W D R A =.].d.x.d.d.1.:.]   ",
"* b..X Xm.[.[.>.9 p g s g z g a j B f D S :.,.j p D S c / A g N g g z z f d s p @.+XXX]..XOX X'...  ",
"* C.+XoXB.[.|.@.2 & 3 w w p p u w p 9 B B ' :.g p Y S g Z s 3 3 5 w w a w 9 7 7 _ XX@X'.XX@X|.Z.U   ",
"  W -.S W o.' g < y B R / _ ( ' ` _ R / _ ' ' j p R D Z W S A N B H _ _ ..` A l D ,.' ' ' ( C D ;   ",
"  / ` S _ G ( d r R :.x.N.x.x.x.x.c.d.x.x.:.R g f A Y :.x.a.9.,.2.d.x.x.c.x.:.R _ >.@.o.( ( H D : . ",
"  / / V S B V 9 < j Y ..../ / _ ' _ Y _ _ D A d p A Y / _ _ R Y _ .._ W / R D f Y 9.%.) C H N g 6   ",
"  D W B g g p 7 : y k Y Z j B Z Z Z Z B j j g y r g j j B Z Z B Z S Z c B B j p S ,.) ( V V g d :   ",
"  p f r 9 6 6 * $ 6 i d i r y d d d d i r 8 7 : ; 6 6 8 r i y d d d r i d r r 2 p Z g j r r 7 6 *   ",
"                                                                                                    "
};
