/* XPM */
static char *result[] = {
/* columns rows colors chars-per-pixel */
"48 48 249 2 ",
"   c #892605",
".  c #942A05",
"X  c #963707",
"o  c #953B19",
"O  c #8E3010",
"+  c #A83706",
"@  c #B83609",
"#  c #A83A16",
"$  c #B73911",
"%  c #A33E26",
"&  c #C43A13",
"*  c #9B4510",
"=  c #A74408",
"-  c #B84807",
";  c #A75508",
":  c #B8540B",
">  c #B84719",
",  c #B85A16",
"<  c #A94F1A",
"1  c #B7690A",
"2  c #BD6412",
"3  c #BA681C",
"4  c #B97008",
"5  c #984937",
"6  c #9D5638",
"7  c #994729",
"8  c #B24628",
"9  c #AE5725",
"0  c #B45C25",
"q  c #AF5135",
"w  c #BB6828",
"e  c #B86836",
"r  c #BD753A",
"t  c #B17331",
"y  c #9D672E",
"u  c #C54A07",
"i  c #D34709",
"p  c #C75909",
"a  c #C84913",
"s  c #C35A16",
"d  c #D55808",
"f  c #E65806",
"g  c #C8650C",
"h  c #D7660A",
"j  c #C9760B",
"k  c #D8770C",
"l  c #C36C14",
"z  c #C76816",
"x  c #D56914",
"c  c #CB7313",
"v  c #CB741B",
"b  c #CD7D1C",
"n  c #C97615",
"m  c #D37D12",
"M  c #D67717",
"N  c #EE6C0A",
"B  c #E66609",
"V  c #E6760B",
"C  c #E37615",
"Z  c #ED6B0C",
"A  c #C5512A",
"S  c #C46C26",
"D  c #C37423",
"F  c #CC7C23",
"G  c #CC7C2B",
"H  c #C67428",
"J  c #D77A27",
"K  c #C67A38",
"L  c #D67736",
"P  c #C16C3D",
"I  c #9A5242",
"U  c #B46B47",
"Y  c #B67249",
"T  c #A86555",
"R  c #B77952",
"E  c #BB6B5F",
"W  c #B77466",
"Q  c #AD7265",
"!  c #B75442",
"~  c #C87B4A",
"^  c #CD7749",
"/  c #549A08",
"(  c #6F9C17",
")  c #5CA704",
"_  c #6BA90D",
"`  c #789425",
"'  c #76A427",
"]  c #74CA02",
"[  c #81AB09",
"{  c #AF9038",
"}  c #88A92F",
"|  c #8D9E33",
" . c #DC8A0E",
".. c #CE831B",
"X. c #DB8C1C",
"o. c #D78716",
"O. c #DA9518",
"+. c #CF8D0A",
"@. c #E88A0C",
"#. c #F5870D",
"$. c #EA960E",
"%. c #F4970D",
"&. c #E58A17",
"*. c #F78917",
"=. c #E39213",
"-. c #E59B13",
";. c #E5991A",
":. c #F79717",
">. c #DEA71A",
",. c #DDA30D",
"<. c #EEA40E",
"1. c #F4A50F",
"2. c #EDA514",
"3. c #EBAC1B",
"4. c #E7A618",
"5. c #F5AC1C",
"6. c #F5A717",
"7. c #EBB71A",
"8. c #F3B519",
"9. c #F6BA1C",
"0. c #F6B715",
"q. c #EABA0C",
"w. c #CD842B",
"e. c #CD8726",
"r. c #D38422",
"t. c #D48B24",
"y. c #D48B2A",
"u. c #D78727",
"i. c #DB9523",
"p. c #D99829",
"a. c #CC8537",
"s. c #D38937",
"d. c #D79738",
"f. c #C89334",
"g. c #E38B23",
"h. c #E49726",
"j. c #F79B23",
"k. c #E39C38",
"l. c #E08C32",
"z. c #DCA729",
"x. c #DCA73A",
"c. c #DFB134",
"v. c #E5A729",
"b. c #FBA827",
"n. c #EAB627",
"m. c #F4BE21",
"M. c #F8B825",
"N. c #E5A937",
"B. c #E4B334",
"V. c #EDBC34",
"C. c #E9B838",
"Z. c #F2BE37",
"A. c #90D002",
"S. c #AFD502",
"D. c #F4CB1D",
"F. c #F6C41B",
"G. c #F7D41D",
"H. c #F8D418",
"J. c #EEC513",
"K. c #F5C324",
"L. c #F9C424",
"P. c #F6CC23",
"I. c #F8CC21",
"U. c #F9C82B",
"Y. c #FAD42C",
"T. c #F9D72A",
"R. c #ECC639",
"E. c #F3CB35",
"W. c #F5C835",
"Q. c #F6D135",
"!. c #F9D533",
"~. c #FADC34",
"^. c #F9DC3A",
"/. c #F6D63C",
"(. c #EDC229",
"). c #FCE036",
"_. c #FBE13B",
"`. c #FBE12B",
"'. c #BB8748",
"]. c #A5924C",
"[. c #B1854F",
"{. c #A4A846",
"}. c #B7A55C",
"|. c #B5AF55",
" X c #A8A459",
".X c #CA8747",
"XX c #D18A48",
"oX c #CD944A",
"OX c #D79747",
"+X c #C68857",
"@X c #C99757",
"#X c #D69857",
"$X c #E39F43",
"%X c #DCA54C",
"&X c #DAA648",
"*X c #D8A453",
"=X c #DEB252",
"-X c #D1A952",
";X c #E5AD48",
":X c #E8B748",
">X c #E3A857",
",X c #E7B758",
"<X c #F1BF55",
"1X c #C7866A",
"2X c #C89767",
"3X c #C68978",
"4X c #D09C71",
"5X c #D5A663",
"6X c #DDBB65",
"7X c #DBB367",
"8X c #DAB677",
"9X c #CBB069",
"0X c #E8BA68",
"qX c #E9BB75",
"wX c #EBC547",
"eX c #F4C849",
"rX c #F8D946",
"tX c #ECC659",
"yX c #F3C858",
"uX c #F6D856",
"iX c #EED153",
"pX c #FBE244",
"aX c #FAE34B",
"sX c #F9E54D",
"dX c #FBE45A",
"fX c #D0C675",
"gX c #EBC667",
"hX c #F2CB67",
"jX c #F6D668",
"kX c #EBC477",
"lX c #F2CD77",
"zX c #E9D57B",
"xX c #F2DA77",
"cX c #ECD36C",
"vX c #FDEA68",
"bX c #F8E476",
"nX c #FDF075",
"mX c #C99482",
"MX c #CDACA5",
"NX c #D7C783",
"BX c #EBD685",
"VX c #E6D191",
"CX c #F6E786",
"ZX c #F4EA9A",
"AX c #FFFC9B",
"SX c #FDF798",
"DX c #FEF384",
"FX c #FEFAA5",
"GX c None",
/* pixels */
"GXGXGXGXGXGXGXGXGXGXGXGXGXGXGXGXGXGXGXGXGXGXGXGXGXGXGXGXGXGXGXGXGXGXGXGXGXGXGXGXGXGXGXGXGXGXGXGX",
"GXGXGXGXGXGXGXGXGXGXGXGXGXGXGXGXMXmXW XXOXOXx.&Xx.&XoXXX+X3XMXGXGXGXGXGXGXGXGXGXGXGXGXGXGXGXGXGX",
"GXGXGXGXGXGXGXGXGXGXGXGXGXGXmX+Xs.v.5.4.3.7.7.K.n.7.n.7.n.c.&X+X3XGXGXGXGXGXGXGXGXGXGXGXGXGXGXGX",
"GXGXGXGXGXGXGXGXGXGXGXGX4X^ h.-.1.F.D.Y.T.~.~.^.~.~.~.T.T.P.n.7.c.oX2XGXGXGXGXGXGXGXGXGXGXGXGXGX",
"GXGXGXGXGXGXGXGXGXGXGX^ g.-.8.I.Y.~.)._._.~.!.!.!.!._._._.pX^.T.P.(.z.'.mXGXGXGXGXGXGXGXGXGXGXGX",
"GXGXGXGXGXGXGXGXGX3XL ;.8.K.Y._.^.!.V.i...F G G w.w...i.n.E.pXsXpXT.D.7.x.+XGXGXGXGXGXGXGXGXGXGX",
"GXGXGXGXGXGXGXGX~ u.6.m.Y.^._.(.i.n m m v OX5X7X8X#X.XXXOXa.X.B.^.sX/.T.J.z.'.GXGXGXGXGXGXGXGXGX",
"GXGXGXGXGXGXGXY M b.K.T.^.W.X.2 c >.>.O.v.,XxXbXCXVXkX0X;X:X-Xs.e.n.pXpX~.D.>.a.GXGXGXGXGXGXGXGX",
"GXGXGXGXGXGXY k 5.U.~.^.v.l j O.O.7.M.:XgXiXxXBXxXCXBXgX,XuXiXOX.XG h./.aX/.G.>.a.GXGXGXGXGXGXGX",
"GXGXGXGXGXR x 6.U.~.E.i.2 +.7.I.7.;.d.XXoXgX9Xt +XzX,XOXs.C.:X,XtX=Xa.r.E.pX^.I.>.Y GXGXGXGXGXGX",
"GXGXGXGX3Xz %.F._.E.X.l o.-.D.7.X.D r { oX-X'.3 t -X=X'.t w.w.;XdXjX,Xa.F (.aX!.D.>.R GXGXGXGXGX",
"GXGXGXGX0 @.M.~.Q.X.: m 4.-. .n w @X8X6X-X&X'.y.d.@X0X8XfX2Xr D p.yXyX*X.Xu.W.sXQ.q...GXGXGXGXGX",
"GXGXGXU x 6.Y./.p.1  .-.i.:X,X7X2X[.&X=X&X&X'.p.oX*X0X0X,X@X[.5XtXgXqX0X>XL ../.aXK.4.t GXGXGXGX",
"GXGXmX: :.L.^.n.2 o.D.m.N.rXaXsX-X{ wXwXd.oX'.b w.@X&X=XiX-X[.iXsXrXtX0X0X5Xa.h.sXrX8.o.GXGXGXGX",
"GXGXe V 6.~.E.b n F.D.v.V.T.`.T.f.y wXiX;Xa.Y , e +Xd.yXuX{ t D.`.`.W.>XgXxX>XF R.sXW.$.w GXGXGX",
"GXGXa #.M._.z.: j 7.4...3.I.P.5.: 6 kXzX>Xs.{ Y K s.*XlXBX2X*  .L.I.m.i.$XbXhXd.u.rXrX2.M GXGXGX",
"GX^ d :.~.Q.m c -.&.j : M 2.=.g X < r e e < 9 9 9 < 9 e r 0 O : &.;.=.p S tXlXXXH V.rXM.V e GXGX",
"GXa V M.).z.l 4.F.O.z e , : - < Y [.4X5X-X6XgX6XgX6X7X9X2X@XR 6 = - : P P OXlXqXOX;.^.Y.@.s GXGX",
"GXu #.U./.X.l q.-.m w w r oX5X2X].].}.fXZXFXSXAXSXSXZXNX}.].].@X9X@X.Xr e K >XyXv.r.Q.!.:.h T GX",
"GXi *.T.E...c ;.&.c e.a.cXCXBX|.` ( ( | fXFXAXAXSXSXNX| ` _ ( {.CXCXxX6X.Xw.OX;Xr.G M.^.5.B q GX",
"P f *.~.V.2 M ;.X.F p.d.vXnXbX{./ ] ] ] {.ZXFXAXFXZX|.( A.S._ ' zXDXvXhX#Xu.s.;Xu.v v.^.M.B e GX",
"A f 6.~.z., X.v.k.u.p.d.rXrXbXfX( ] ] ) ' NXFXAXFXZX{.) S.S.[ | xXuXrXwXOXu.s.,Xh.u.i._.M.N A GX",
"& N b.~.p.2 k.<XN.l.u.b v.b.:XgX|.} ) / ' zXFXAXFXZX|.) ) [ {.-X<Xn.n.l.a.t.y.eXN.u.t.^.L.N a GX",
"& N M.^.p.s :XjXN.h.h.z z z c G *X9X{.{.fXZXZXVXVXAXBX|.{ |.@Xw.v x g z u.h.y.eXZ.M r.~.L.Z i GX",
"& f M.~.i., <XjXN.j.b.l.J H ~ 4X2X+X,XgXxXSXVXU 2XFXDXxX0X#X+X4X1Xw b g.b.h.t.eXV.M b /.U.Z i GX",
"& N M.).p.w ,XgXN.g.b.b.j.u.s.wX=X+Xd.rXuXCX1X7 U VXvXuXC.s.d.wX;XK h.b.b.h.J N.;.k r.^.M.Z i GX",
"@ B 5.).v.0 >XqXk.g.b.b.b.o.M 0.v..Xb U.uX0X5   O [.vXW.v.v X.9.v.J j.b.b.g.v ;.&.c p.^.M.Z a GX",
"$ B :.).B.S >XqX>XJ j.b.j.M g @.h.s.3 b.W.,XU 5 I +XyXM.t.,  .@.M H j.j.j.g.v -.k : h.^.9.N a GX",
"8 f :.~.R.F oXqX#XJ *.j.j.C S L ^ P , &.;.k.$X#X#X$Xv.&.c < L L L S j.j.*.c c  .m l n._.0.f A GX",
"U u #.Y.E.t.a.lXqX^ C j.:.J ^ <XyX#Xe S s x J J J x x z w Y ;X<XOXL *.j.M :  .2. .n W.~.:.f A GX",
"Q = %.m.^.z.H 0XqX#XL *.*.C v K.U.N.K s.K y.s.K L s.J w.s.s.U.U.h.J *.*.x l 7.0.o.r.!.U.#.i ! GX",
"GX+ V 5.^.Z.D XXlXkXs.x *.C g <.0.O.H N.d.d.N.s.t.N.d.i.i.b 0.6. .x C x : k -. .c n._.M.N a E GX",
"GX5 g 1.Y./.y.w tXbX,XS C V h k 2.X., F y...p.y...i.u.n l l 1.$.h x Z : b 3. .g b E.~.6.B 8 GXGX",
"GXQ = %.F._.V.D d.jXhXs.A B x p @.;.~ oX+Xr w e 9 t ~ .X~ x $.k p h : l m.I.O.2 v.).L.#.u q GXGX",
"GXGXo j 0.T.rXp.S OXgX0Xa.- d p p C l.C.:X:X&X;X&X;X:XR.h.h k p u - : v.Y.7.n ..Q.~.5.h # GXGXGX",
"GXGXT = <.K.pXwXF w ,XkX>X~ 0 - u s M %.8.m.U.Q.Y.K.9.4.k i u + + , o.=.4...n V._.K.#.p 5 GXGXGX",
"GXGXGX7 4 J.Q.aXV.H K %XlXjX%Xe + + u p k @.@.@.@.@.V h u + + = l X.4.=.g n v._.Y.%.h o GXGXGXGX",
"GXGXGXQ * $.D.!.sXB.D w ;XuXjX%Xe q X X + = - - - = + + . X 3 O.m.3. .j 2 z.^.~.5.@.= I GXGXGXGX",
"GXGXGXGX6 ; q.H./.sXB.H w p.eX<X,X*XY e o .   . . . X = g n O.G.D.O.g l v./.~.9.%.: 7 GXGXGXGXGX",
"GXGXGXGXGX7 1 q.G./.aXC.e.3 v d.uXuX,X#Xd.b t.....e...O.4.7.3.4.o.l b v./.~.9.%.d o GXGXGXGXGXGX",
"GXGXGXGXGXGXo 4 J.G.!.pXwXz.w w e.B.wX,X,X;X:XuXeXC.4.v.R.(.o.2 v p.W.^.T.9.%.g # T GXGXGXGXGXGX",
"GXGXGXGXGXGX3Xo 1 q.H.P._.aXR.d.F D D K a.d.$Xk.k.O.o.t.s.y.b y.C.^.^.I.9.%.p # E GXGXGXGXGXGXGX",
"GXGXGXGXGXGXGXGXo ; ,.H.T./.pXaXR.x.p.e.H D H w S v v y.d.B.R./.^.Y.F.0.#.p # E GXGXGXGXGXGXGXGX",
"GXGXGXGXGXGXGXGXGX5 * +.q.H.P.Q._._.rXeX:XB.B.x.x.B.R.R./.^.).Y.K.0.1.h @ 8 3XGXGXGXGXGXGXGXGXGX",
"GXGXGXGXGXGXGXGXGXGXT O ; +.q.H.D.I.Y.T.)._._._.^.).).`.Y.L.F.F.1.@.u @ ! GXGXGXGXGXGXGXGXGXGXGX",
"GXGXGXGXGXGXGXGXGXGXGXGX6 O ; j ,.J.H.H.G.D.D.D.I.K.D.F.0.0.$.h u @ 8 3XGXGXGXGXGXGXGXGXGXGXGXGX",
"GXGXGXGXGXGXGXGXGXGXGXGXGXGX6 O * ; 1 +.+.-.<.<.<.$.&.j z - $ + 8 3XGXGXGXGXGXGXGXGXGXGXGXGXGXGX",
"GXGXGXGXGXGXGXGXGXGXGXGXGXGXGXGXGXGXGX    X X * X X X . . 5 W GXGXGXGXGXGXGXGXGXGXGXGXGXGXGXGXGX"
};
