/* XPM */
static char *c5b1cb179e4f427aa55aae48a656d14dcnMCjB8JR1FNufTX[] = {
/* columns rows colors chars-per-pixel */
"50 50 108 2 ",
"   c None",
".  c #010101",
"X  c #060805",
"o  c #090B06",
"O  c #070708",
"+  c #0B0C0A",
"@  c #0F110C",
"#  c #12140D",
"$  c #161B0C",
"%  c #191D0D",
"&  c #0F0F10",
"*  c #0F1010",
"=  c #131313",
"-  c #171912",
";  c #1A1D14",
":  c #171719",
">  c #1B1C1B",
",  c #1B210E",
"<  c #1E2213",
"1  c #1E2119",
"2  c #212516",
"3  c #232917",
"4  c #21241B",
"5  c #25291B",
"6  c #292E1C",
"7  c #2C321E",
"8  c #1F1F20",
"9  c #1F2220",
"0  c #242423",
"q  c #272924",
"w  c #2A2C24",
"e  c #272828",
"r  c #2B2B2B",
"t  c #302E2D",
"y  c #2E3223",
"u  c #2F3129",
"i  c #313524",
"p  c #343925",
"a  c #33352C",
"s  c #363A2B",
"d  c #393E2C",
"f  c #2F2F30",
"g  c #312F30",
"h  c #343434",
"j  c #383637",
"k  c #373A32",
"l  c #3B3E32",
"z  c #363438",
"x  c #383639",
"c  c #3C3E39",
"v  c #3D422E",
"b  c #3E4232",
"n  c #3F413C",
"m  c #414634",
"M  c #444935",
"N  c #43463A",
"B  c #464A3A",
"V  c #494E3D",
"C  c #4C513D",
"Z  c #4A4E42",
"A  c #4B4D49",
"S  c #4E5242",
"D  c #515544",
"F  c #545945",
"G  c #585D47",
"H  c #54574B",
"J  c #565B49",
"K  c #595E4C",
"L  c #5A5D51",
"P  c #5C614D",
"I  c #5E6251",
"U  c #60654F",
"Y  c #616653",
"T  c #636955",
"R  c #65665F",
"E  c #666B5A",
"W  c #696E5C",
"Q  c #6C715E",
"!  c #71765F",
"~  c #6B6D62",
"^  c #6E7361",
"/  c #717564",
"(  c #747966",
")  c #72756A",
"_  c #767A69",
"`  c #797D6C",
"'  c #757772",
"]  c #7F8374",
"[  c #80856F",
"{  c #828674",
"}  c #858A75",
"|  c #868A7A",
" . c #898E7C",
".. c #8C917E",
"X. c #8B8F80",
"o. c #8E9281",
"O. c #919585",
"+. c #939789",
"@. c #95998A",
"#. c #999D8B",
"$. c #9CA18D",
"%. c #9CA091",
"&. c #A1A594",
"*. c #A5AA95",
"=. c #A7AB9C",
"-. c #AEB39E",
";. c #AAAEA0",
":. c #AFB3A1",
/* pixels */
"                                                                                            ) r 8   ",
" .O.@.+.@.@.+.+.o.| |  .o.O.o.o...o.o.o.o.O.O.o.o.....o.o.o.o. ...O.O.O.O.o...O.O.X.o. .O.| L : &   ",
"` { _ / ) _ _ ` _ / / ( _ ( _ ( ( ( _ _ _ _ ( ( ( ( / ( _ ( / / ( _ _ ` _ ( ( ( ( ( ( ( ` / N @ .   ",
"E E l w i p v b v m v m b m m v v v m v m v d d v v b v v b d v d v m v v v d v d p v B H D a + .   ",
"U T 7 5 6 7 i p i p p p p p p s d d v v v m m m v m m m m m v v v v v v v b v d d i i M F C u + .   ",
"Y T N d M B C B B B V F F F F J K K P I P Y I P K K P I K K G P K K J J P P F D F C C G K V t + .   ",
"Y K K K K T T T L K Y _ _ / / ( ( _ ` ` ] ` _ ( / / ( / W ~ Q Q / / W W ^ ^ ^ E Q W W T G N t + .   ",
"I N b d m N N m N m b B B B B B B V B V V V V V V V B m b m b b m N b l b l b v m v v m s i 4 X .   ",
") w 2 5 6 7 6 1 1 , : 1 ; 1 1 1 4 ; 4 ; 1 4 4 4 2 ; ; ; ; ; ; - > ; ; ; - ; < 1 5 2 2 6 5 ; & X .   ",
"' ; $ % , , , o X X X X X X X X X X X X X X X X X X X X X X X X X X X X X . o # , % % , , # . . X   ",
"A $ ; $ , , $ o . . . . . . . . . . . . . . . . . . . . . . . . . . . . . . O ; 2 $ $ % ; @ . O .   ",
"  ; 2 $ , 1 , @ . . . . . . . . . . . . . . . . . . . . . . . . . . . . . . X 4 s # % 2 2 $ . X =   ",
"  4 5 % 3 7 < @ . . . . . . . . . . . . . . . . . . . . . . . . . . . . . . o w v % , y w $ . X =   ",
"  1 5 < 7 d < @ . . . . . . . . . . . . . . . . . . . . . . . . . . . . . . o u b ; 5 d i - . X =   ",
"  4 w 5 v b 6 o . . . . . . . . . . . . . . . . . . . . . . . . . . . . . . o y b 2 7 b p - . O #   ",
"  0 i 7 v b 6 o . . . . . . . . . . . . . . . . . . . . . . . . . . O . . . o s B 6 p M s - . X &   ",
"  q s y b M 7 o . . . . . . . . . . . . . . . . . . . . . . . . . . . . . . o s S 7 v M d - . . =   ",
"  q v s C C w o . . . . . . . . . . . . . . . . . . . . . . . . . . . . O . O l F y v C v - . X +   ",
"  w b v C C w o . . . . . . . . . . . . . . . . . . . . . . . . . . . . . . + l F p v V d - . O =   ",
"  w b v C C y @ . . . . . . . . . . . . . . . . . . . . . . . . . . . . . . O l P p M C m - . X =   ",
"  w b m D F u @ . . . . . . . . . . . . . . . . . . . . . . . . . . . . . . X n F v V F M < . . &   ",
"  r l m P P s o . . . . . . . . . . . . . . . . . . . . . . . . . . . . O . o b G p C P M ; . . =   ",
"  w b B I P s o . . . . . . . . . . . . . . . . . . . . . . . . . . . . . . o b G v F P B ; . X =   ",
"  w b C T I p X . . . . . . . . . . . . . . . . . . . . . . . . . . . . . . O n K M G P B ; . X =   ",
"  r N C T I a o . . . . . . . . . . . . . . . . . . . . . . . . . . . . . . o b K M G U V ; . O =   ",
"  w N C T T a o . . . . . . . . . . . . . . . . . . . . . . . . . . . . . . O n I m G T V ; . X =   ",
"  w N C I T d o . . . . . . . . . . . . . . . . . . . . . . . . . . . . . . + l K m G T Z ; . . =   ",
"  w m S W I d @ . . . . . . . . . . . . . . . . . . . . . . . . . . . . . . X b K m P W Z ; . O =   ",
"  w n F ! W v o . . . . . . . . . . . . . . . . . . . . . . . . . . . . . . + l L m Y Q S ; . O =   ",
"  y b F ^ Q v o . . . . . . . . . . . . . . . . . . . . . . O . . X . O . X + l I M T / S 1 . X :   ",
"  u b F ^ ~ v O . . . . . . . . . . . . . . . . . . . . . . O . X . X . . . + l U m U ! S ; . X =   ",
"  u b S ! ~ v o . . . . . . . . . . . . . . . . . . O . O . O O . X O O O X + b P m U / D > . O :   ",
"  r M S ^ ^ s @ . . . . . . . . . . . . . . . X X . O X O O O O O O O O X O X c U m U / D 1 . X :   ",
"  u M C Q Q l @ . . . . . . . . . . X . . X . X O X O O O O o + o + o + + X + c U m U ! H 4 . O :   ",
"  r N Z Q / l # . . . . . . . . . . . . O X X O O O O o + + + + + + + + + o @ b U m K ! K 4 . X :   ",
"q e M V ^ _ b # X . . . . . . . . . X . O . O O o + + + + + + & + & + & + o # b K m K ( L 4 . X >   ",
"r q b V ^ ] m # . . . . . . . . X . O O O O + + + + & & + & & & & & & & & + # b K m P ( I 5 . O >   ",
"u u M M Q ( N $ X . . . . . . . . X X o O + + + & & & & & # & = = & = = # # ; B G m K ( L u & X +   ",
"k h B M Q _ B ; + . . . . . X O O O O + + + & & & & = = = = - : = - - : # # 6 D K m K ( K a > . .   ",
"n b S F ! ! C 2 # . . . X . . O O o + & & & # = & : = : : : > : > : : : = > h Y P C Y ( K k 4 . .   ",
"n d C U W Y N w # . . . X X O O + + & & = = = : : : : : : : 8 8 > > > > : 1 n ~ Y Y W W C m w . .   ",
"R D W ! ! Y G N ; . . . O X O + & # & = : : > > > 8 8 8 8 8 8 8 9 9 > 8 > 1 Z ] ( ( ] ! U G a . .   ",
"&.` }  .[ ` ] R 4 . . O O O + & # & = : : > > > 8 8 8 0 0 8 8 0 0 0 0 9 1 9 Z %.#.} ....} ) N O .   ",
";.#.$.*.} } #.) 4 O O X + + & & = : : > > 8 0 0 0 0 0 0 e 0 e e 0 0 q 0 9 9 Z =.-.} &.-.@.) c . X   ",
"@.] ] { ! ~ ` I 1 . O + + & = = : : 8 8 8 0 0 e e e e e r e e e e e e e 0 0 b X...Q [ } ( H r X .   ",
"] R Y G G G H N - X + & & & : : 8 8 8 0 e e e e t r r t r r f e r r r r q 4 k ^ Q G U P D b ; . .   ",
"` J D V V V M j # o + & = = > > 8 0 0 e e e f f f g t t t r t t r r r r w q k E P F G C M a - . .   ",
") H D V M v j u @ + & = : > > 0 0 e r r t t g g g g z g h h g h h h h h r w k E P F C M v u - . .   ",
") Z V N d i i w # + = : > 8 0 0 t r t t g a h h z z z z z z h z h h k h u w a H V V M b s u - . .   ",
"~ N l d i w w 4 # @ : > 8 0 0 r t t g z j j j j j j j j j j h j x h x j f q w l a d d l s u ; . X   "
};
