/* XPM */
static char *result[] = {
/* columns rows colors chars-per-pixel */
"41 50 200 2 ",
"   c #0B0602",
".  c #0C0904",
"X  c #0D0D0C",
"o  c #150C02",
"O  c #180F03",
"+  c #120E0A",
"@  c #0F100E",
"#  c #1C1104",
"$  c #12120E",
"%  c #1B150C",
"&  c #141512",
"*  c #191712",
"=  c #171814",
"-  c #1B1C16",
";  c #1C1D1A",
":  c #251605",
">  c #291906",
",  c #2B1E0D",
"<  c #261D0C",
"1  c #341F08",
"2  c #251D14",
"3  c #211E1A",
"4  c #1D2017",
"5  c #1F201A",
"6  c #2D230F",
"7  c #332104",
"8  c #3A2406",
"9  c #3D240B",
"0  c #36290D",
"q  c #22231C",
"w  c #27281F",
"e  c #2C2516",
"r  c #352813",
"t  c #252521",
"y  c #272922",
"u  c #2A2B24",
"i  c #2D2E2A",
"p  c #312F2B",
"a  c #2F302B",
"s  c #2F3027",
"d  c #313227",
"f  c #33332B",
"g  c #3A392D",
"h  c #38382A",
"j  c #353532",
"k  c #3B3B33",
"l  c #3D3D39",
"z  c #442B0D",
"x  c #482C0A",
"c  c #512F0C",
"v  c #52320D",
"b  c #593807",
"n  c #452D15",
"m  c #4D3312",
"M  c #40331F",
"N  c #4C3919",
"B  c #593913",
"V  c #633B0D",
"C  c #673D13",
"Z  c #473A21",
"A  c #443929",
"S  c #413F37",
"D  c #3F4037",
"F  c #57441A",
"G  c #664206",
"H  c #75470E",
"J  c #654D1A",
"K  c #724416",
"L  c #7C601C",
"P  c #424336",
"I  c #43443B",
"U  c #47483E",
"Y  c #49493D",
"T  c #494637",
"R  c #544A35",
"E  c #52523E",
"W  c #504629",
"Q  c #614D26",
"!  c #655638",
"~  c #6E532F",
"^  c #6F6035",
"/  c #79693D",
"(  c #454541",
")  c #4C4C44",
"_  c #4D4E49",
"`  c #464841",
"'  c #524F43",
"]  c #535244",
"[  c #53534B",
"{  c #5D5B4D",
"}  c #585746",
"|  c #555650",
" . c #5C5B52",
".. c #5B5B5B",
"X. c #615E4F",
"o. c #615E50",
"O. c #5E6053",
"+. c #746943",
"@. c #74704D",
"#. c #646254",
"$. c #696654",
"%. c #6D6B56",
"&. c #69675A",
"*. c #6C6B5B",
"=. c #65655B",
"-. c #716E58",
";. c #737356",
":. c #73725B",
">. c #7C7B5D",
",. c #79775C",
"<. c #6C6D62",
"1. c #706F65",
"2. c #747464",
"3. c #787663",
"4. c #777865",
"5. c #7C7B65",
"6. c #75756B",
"7. c #7D7C6A",
"8. c #787769",
"9. c #7C7D73",
"0. c #A53606",
"q. c #815504",
"w. c #945C0F",
"e. c #905D05",
"r. c #8C5E12",
"t. c #BD5D0C",
"y. c #996206",
"u. c #936512",
"i. c #A46C05",
"p. c #B9670C",
"a. c #AD7106",
"s. c #B67606",
"d. c #875D21",
"f. c #C2700E",
"g. c #927F4C",
"h. c #847B57",
"j. c #807E67",
"k. c #7E8064",
"l. c #CB8504",
"z. c #CC8A03",
"x. c #D58F03",
"c. c #DB9204",
"v. c #C78714",
"b. c #D29712",
"n. c #EDA003",
"m. c #FDAA01",
"M. c #F6A503",
"N. c #96844C",
"B. c #88835A",
"V. c #938557",
"C. c #A48E53",
"Z. c #848463",
"A. c #888566",
"S. c #8A8866",
"D. c #83826D",
"F. c #89876B",
"G. c #8B8B6B",
"H. c #968C6A",
"J. c #878570",
"K. c #898773",
"L. c #8C8A74",
"P. c #84847A",
"I. c #8B8B7B",
"U. c #8A8778",
"Y. c #928E74",
"T. c #8E9078",
"R. c #8F9073",
"E. c #959475",
"W. c #94947C",
"Q. c #99997E",
"!. c #AA9A66",
"~. c #B29D63",
"^. c #A29D77",
"/. c #8C8C82",
"(. c #949485",
"). c #9D9C83",
"_. c #94948B",
"`. c #9A9B8C",
"'. c #9B9B93",
"]. c #959595",
"[. c #A19F84",
"{. c #A09F91",
"}. c #9FA184",
"|. c #A2A186",
" X c #A5A589",
".X c #A8A78A",
"XX c #AAA98D",
"oX c #A2A293",
"OX c #A9AA99",
"+X c #A9A9A5",
"@X c #B4B5A3",
"#X c #B7B7A8",
"$X c #B8B8B1",
"%X c #BFC1AC",
"&X c #C6C7BB",
"*X c #CFD0C4",
"=X c #C3C4C3",
"-X c gray88",
";X c gray94",
":X c None",
/* pixels */
":X:X:X:X:X:X:X:X:X:X:X:X:X:X:X:X:X@ ; i j f :X:X:X:X:X:X:X:X:X:X:X:X:X:X:X:X:X:X:X",
":X:X:X:X:X:X:X:X:X:X:X:X:X:X:X& k D l f U y :X:X:X:X:X:X:X:X:X:X:X:X:X:X:X:X:X:X:X",
":X; :X:X:X:X:X:X:X:X:X:X:X; j ` f f f f _ q :X:X:X:X:X:X:X:X:X:X:X:X:X:X:X:X:X:X:X",
":X:X; & :X:X:X:X:X:X:X:X; ( ( i a a f f [ 5 :X:X:X:X:X:X:X:X; :X:X:X:X:X:X:X:X:X:X",
":X:Xq ; :X:X:X:X:X:X:X@ ( h q w w u d f [ 5 :X:X:X:X:X:X:X:X5 ].:X:X:X:X:X:X:X:X:X",
":X:X= - :X:X:X:X:X:X:XI y - 4 4 4 4 w f | 5 :X:X:X:X:X:X:X= ; $X;X:X:X:X:X:X:X:X:X",
":X; 5 q :X:X:X:X:X:Xj s 4 - - 4 4 4 4 u | 5 :X:X:X:X:X:X:X& i ..:X:X:X:X:X:X:X:X:X",
":X@ 5 - :X:X:X:X:X:Xi = & a D q - ; ; q | 5 t :X:X:X:X:X:X& ; & :X:X:X:X:X:X:X:X:X",
":X; u q :X:X:X:X:X; & _ 7.D.Z.;.h - 4 5 [ q [ I :X:X:X:X:X; q 5 :X:X:X:X:X:X:X:X:X",
"X q q q :X:X:X:X:Xq P.(.G.A.A.Z.>.g - 4 ` q 7.L.2.; :X:X:X:X& ; & :X:X:X:X:X:X:X:X",
"@ h l l :X:X:X:X:X#XR.S.G.E.G.S.Z.k.y 5 ` q k.L./.'.:X:X:X:X; ; = :X:X:X:X:X:X:X:X",
"5 P D I D :X:X:X/.W.S.S.E.W.W.R.S.B.X.& D q 7.L.K.I.<.i :X( y q @ :X:X:X:X:X:X:X:X",
"& P D y g D a s ) :.G.E. X XL.6.R.S.k.q l 5 5.I.L.J.`.I i ; 5 y X :X:X:X:X[ :X:X:X",
"@ 5 w k h s 5 u y q G.^.XXXX Xk.2.G.Z.E j 5 5.L.L.J.D.=.5 y & - X :X:X:X:X8.P :X:X",
":X@ t y u y q u u & G. XXXXXXXE.:.4.Z.;.u ; j.L.L.%.D.&.; 4 @ @ :X:X:X:X:XI.:.:X:X",
":X:X& = - & 4 5 5 & R. X XXX X^.G.>.B.k.y q 7.Y.K.7.5.4.5 = X :X:X:X:X:X:XOXT.w :X",
":X:X:X& $ * - - - d Q.|.|. X X|.E.A.Z.>.h q j.L.K.3.2.j.t * :X:X:X:X:X:X:X@XQ.U :X",
":X:X:X:X:X; j u d ;.).).|.|.|.).}.Q.G.Z.' q J.L.K.7.7.j.l :X:X:X:X:X:X:X:X#X}.=.:X",
":X:X:X:X:X:X`.j.>.B.).S./ / / N.C.!.^.E.K.$.K.Y.V.+.R R k :X:X:X:X:X:X:X'.%X X6.:X",
":X:X:X:X:X:XoX,.>.5.^.e o o : 7 > 6 M N.Y.Y.Y.^ , 7 > , :X:X:X:X:X:X:X:X&X#XXXk.:X",
":X:X:X:X:X:XoX;.,.5.!.$ # b s.c.a.b 8 , V.L.h., G z.H 6 :X:X:X:X:X:X:X:X*X@X X:.:X",
":X:X:X:X:X:X{.:.:.,.~.o z l.m.m.m.a.b c Z G.! z y.m.z.z :X:X:X:X:X:X:X+X&XOX}.} :X",
":X:X:X:X:X:X`.-.;.,.~.% G n.m.m.m.c.H C x -.Z B a.m.x.m :X:X:X:X:X:X:X%X#X X).k :X",
":X:X:X:X:X:X`.%.%.:.H.h 7 s.M.m.m.l.H K K A n V y.n.i.M :X:X:X:X:X:X_.%X@XQ.T.& :X",
":X:X:X:X:X:X_.$.%.%.F.@.+ 8 q.i.w.C c V V m c c v G 7 T U.:X:X:X:X:X].OXoXT.:.:X:X",
":X:X:X:X:X:X/.$.$.$.j.J.+., + : # r A x x x z z r W ~ h./.:X:X:X:X:X:XOXT.U.) :X:X",
":X:X:X:X:X:XP.X.] X.-.J.F.H.N.g.V.F.[ 1 1 1 1 > 2 #.3.j./.:X:X:X:X:X_.).J.k.j :X:X",
":X:X:X:X:X:X8.X. .' { j.j.j.J.j.3.8.S > > > : : # #.:.5.U.:X:X:X9.k._.2.) ] :X:X:X",
":X:X:X:X:X:X&.{  .o.o.$.j.j.3.*.o.9.p # # # # O o [ *.5.k.:X:X9.`._.7.&.f k :X:X:X",
":X:X:X:X:X:X .#.o.o.{ o.$.*.o.{ { 9.q O O O O O o f &.3.9.:X:X'.(.(.1.O.:X:X:X:X:X",
":X:X:X:X:X:X:X .6.o.o.o.o.o.{ o.o.<.% O o o o o o = =.<.9.:X:X'./.U.*.P :X:X:X:X:X",
":X:X:X:X:X:X:X:X:X].j.o.o.{ { { { | o o o o o o . - #.2.:X:X:XoXI.<.U :X:X:X:X:X:X",
":X:X:X:X:X:X:X:X:X:X:X..R E -.&.{ I         . = :X:X..:X:X:X:X].6.] :X:X:X:X:X:X:X",
":X:X:X:X:X:X:X:X:X:X:Xy B N k k k s & * * k = t :X:X:X:X:X:X:X/.#.U :X:X:X:X:X:X:X",
":X:X:X:X:X:X:X:X:X:X:Xk f * I [ q q W F w f ) l :X:X:X:X:Xy i <.l :X:X:X:X:X:X:X:X",
":X:X:X:X:X:X:X:X:X:Xh D.$.3 ] 7.y F v.p.r.q *.[ :X:X:X:X:Xy ; y :X:X:X:X:X:X:X:X:X",
":X:X:X:X:X:X:X:X:X:X:.I.Y ) #.F.f u.t.p.v.6 3.] } J :X:X:Xy ; X $ :X:X:X:X:X:X:X:X",
":X:X:X:X:X:X:X:X:XF R ` [ X.3.L.U w.t.0.b.6 8.h r.2 u l j a = u :X:X:X:X:X:X:X:X:X",
":X:X:X:X:X:X:X:X2 0 J r.} o.5.U.{ v p.f.w.3 3.Q m 5 u w ; ; i :X:X:X:X:X:X:X:X:X:X",
":X:X:X:X:X:X:X:Xw w 3 % _ o.-.J.#.u M B u q 4.I y t a 5 - & . :X:X:X:X:X:X:X:X:X:X",
":X:X:X:X:X:X:X; w a u f S _ [ X.{ u u u q - k _ =Xl 5 i y = & :X:X:X:X:X:X:X:X:X:X",
":X:X:X:X:X:X:X& f f u k k ) ) [ ) k f U f j P =.+X+Xt t ; . :X:X:X:X:X:X:X:X:X:X:X",
":X:X:X:X:X:X:X; u d u y O.T k k ( ) p S q 2 E *./.-X_ ; X :X:X:X:X:X:X:X:X:X:X:X:X",
":X:X:X:X:X:X:X& * ; q u *.#.{ S ( j ; t u q Q P 1.$X; ; :X:X:X:X:X:X:X:X:X:X:X:X:X",
":X:X:X:X:X:X:X:X& + X k } X.] e Q :Xt t i * r ~ 6.:X:X:X:X:X:X:X:X:X:X:X:X:X:X:X:X",
":X:X:X:X:X:X:X:X:X:X:X; - u w 4 A :X= t y % q y :X:X:X:X:X:X:X:X:X:X:X:X:X:X:X:X:X",
":X:X:X:X:X:X:X:X:X:X:X& & ; 4 5 i :Xi + & - ; i :X:X:X:X:X:X:X:X:X:X:X:X:X:X:X:X:X",
":X:X:X:X:X:X:X:X:X:X:XX * q w y i :X; & - w u i ; :X:X:X:X:X:X:X:X:X:X:X:X:X:X:X:X",
":X:X:X:X:X:X:X:X:X:X:XX $ ; u y & :XX @ & q q & X :X:X:X:X:X:X:X:X:X:X:X:X:X:X:X:X",
":X:X:X:X:X:X:X:X:X:X:X:X& X X & X :X:X& X @ @ :X:X:X:X:X:X:X:X:X:X:X:X:X:X:X:X:X:X"
};
