/* XPM */
static char *result[] = {
/* columns rows colors chars-per-pixel */
"41 50 200 2 ",
"   c #0B0602",
".  c #0B0905",
"X  c #0D0D0C",
"o  c #150C02",
"O  c #180F03",
"+  c #120E0A",
"@  c #0E100E",
"#  c #1C1104",
"$  c #12120E",
"%  c #1B160C",
"&  c #141512",
"*  c #1A1712",
"=  c #171814",
"-  c #1B1C16",
";  c #1D1D1A",
":  c #251605",
">  c #291906",
",  c #2B1E0D",
"<  c #261D0C",
"1  c #341F08",
"2  c #251E14",
"3  c #211E1A",
"4  c #1D2017",
"5  c #1F201A",
"6  c #2D230F",
"7  c #332104",
"8  c #3A2406",
"9  c #3D240B",
"0  c #36290D",
"q  c #22231C",
"w  c #27281F",
"e  c #2C2516",
"r  c #352813",
"t  c #252521",
"y  c #272922",
"u  c #2A2B24",
"i  c #2D2E2A",
"p  c #312F2B",
"a  c #2F302B",
"s  c #2F3027",
"d  c #313227",
"f  c #33332B",
"g  c #37392C",
"h  c #3A3A2C",
"j  c #3B3626",
"k  c #343433",
"l  c #3B3B33",
"z  c #3D3D39",
"x  c #442B0D",
"c  c #482C0A",
"v  c #512F0C",
"b  c #52320D",
"n  c #593807",
"m  c #452D15",
"M  c #4D3312",
"N  c #48371A",
"B  c #593913",
"V  c #633B0D",
"C  c #673D13",
"Z  c #473A21",
"A  c #433827",
"S  c #413F37",
"D  c #3F4037",
"F  c #57441A",
"G  c #664206",
"H  c #75470E",
"J  c #654D1A",
"K  c #724416",
"L  c #7C601C",
"P  c #424236",
"I  c #43443B",
"U  c #47483E",
"Y  c #49493D",
"T  c #494637",
"R  c #544A35",
"E  c #52523E",
"W  c #504629",
"Q  c #614D26",
"!  c #655638",
"~  c #6E522F",
"^  c #6F6035",
"/  c #79693D",
"(  c #454541",
")  c #4C4C44",
"_  c #4D4E49",
"`  c #464841",
"'  c #524F43",
"]  c #535244",
"[  c #53534B",
"{  c #5D5B4D",
"}  c #585746",
"|  c #555650",
" . c #5C5B52",
".. c #5B5B5B",
"X. c #615E4F",
"o. c #615E50",
"O. c #5E6053",
"+. c #746943",
"@. c #74704D",
"#. c #646254",
"$. c #696654",
"%. c #6D6B56",
"&. c #69675A",
"*. c #6C6B5B",
"=. c #65655B",
"-. c #716E58",
";. c #737356",
":. c #73725B",
">. c #7C7B5D",
",. c #79775C",
"<. c #6C6D62",
"1. c #706F64",
"2. c #747464",
"3. c #787663",
"4. c #777865",
"5. c #7C7B65",
"6. c #75756A",
"7. c #7D7C6A",
"8. c #787769",
"9. c #7D7D73",
"0. c #A53606",
"q. c #815504",
"w. c #945C0F",
"e. c #905D05",
"r. c #8C5E12",
"t. c #BD5D0C",
"y. c #996206",
"u. c #936512",
"i. c #A46C05",
"p. c #B9670C",
"a. c #AD7106",
"s. c #B67606",
"d. c #875D21",
"f. c #C2700E",
"g. c #927F4C",
"h. c #847B57",
"j. c #807E67",
"k. c #7E8064",
"l. c #CB8704",
"z. c #D58F03",
"x. c #DB9204",
"c. c #C78714",
"v. c #D29712",
"b. c #ECA003",
"n. c #FDAA01",
"m. c #F6A503",
"M. c #96844C",
"N. c #88835A",
"B. c #938557",
"V. c #A48E53",
"C. c #848463",
"Z. c #888566",
"A. c #8A8866",
"S. c #83826D",
"D. c #89876B",
"F. c #8C8B6B",
"G. c #968C6A",
"H. c #878570",
"J. c #898773",
"K. c #8C8A74",
"L. c #84847A",
"P. c #8C8C7B",
"I. c #8A8679",
"U. c #928E74",
"Y. c #8E9078",
"T. c #8F9073",
"R. c #959475",
"E. c #94947C",
"W. c #99997E",
"Q. c #AA9A66",
"!. c #B29D63",
"~. c #A29D77",
"^. c #8D8C82",
"/. c #878880",
"(. c #949485",
"). c #9D9C83",
"_. c #93948B",
"`. c #9A9B8C",
"'. c #9A9B93",
"]. c #959595",
"[. c #A19F84",
"{. c #A09F90",
"}. c #9FA184",
"|. c #A2A186",
" X c #A5A589",
".X c #A8A78A",
"XX c #AAA98D",
"oX c #A2A293",
"OX c #A8AA99",
"+X c #A9A9A4",
"@X c #B4B5A3",
"#X c #B7B7A8",
"$X c #B7B8B1",
"%X c #BFC1AC",
"&X c #C6C7BA",
"*X c #CFD0C4",
"=X c #C3C4C3",
"-X c gray88",
";X c gray94",
":X c None",
/* pixels */
":X:X:X:X:X:X:X:X:X:X:X:X:X:X:X:X:X:X:Xf g a ; @ :X:X:X:X:X:X:X:X:X:X:X:X:X:X:X:X:X",
":X:X:X:X:X:X:X:X:X:X:X:X:X:X:X:X:X:X:Xy U f l D k & :X:X:X:X:X:X:X:X:X:X:X:X:X:X:X",
":X:X:X:X:X:X:X:X:X:X:X:X:X:X:X:X:X:X:Xt _ f f f k ) k ; :X:X:X:X:X:X:X:X:X:X:X; :X",
":X:X:X:X:X:X:X:X:X:X; :X:X:X:X:X:X:X:X; [ f d d d a I I ; :X:X:X:X:X:X:X:X= ; :X:X",
":X:X:X:X:X:X:X:X:X].; :X:X:X:X:X:X:X:Xt | a d u y q q g ( @ :X:X:X:X:X:X:X; t :X:X",
":X:X:X:X:X:X:X:X;X$X; = :X:X:X:X:X:X:X5 [ a y 4 4 4 5 4 y ( :X:X:X:X:X:X:X- = :X:X",
":X:X:X:X:X:X:X:X:X..i = :X:X:X:X:X:X:X; | u 5 4 4 ; - ; ; i k :X:X:X:X:X:Xq 5 ; :X",
":X:X:X:X:X:X:X:X:X& t & :X:X:X:X:X:Xq ; | q 5 ; - q P d $ = i :X:X:X:X:X:X- 5 @ :X",
":X:X:X:X:X:X:X:X:X5 5 ; :X:X:X:X:XI | 5 ] q 4 = g ;.C.S.7._ = ; :X:X:X:X:Xq s 4 :X",
":X:X:X:X:X:X:X:X& 5 & :X:X:X:X; 2.J.k.5 ) 4 = h ,.C.A.A.A.(.I.; :X:X:X:X:Xq q 5 X ",
":X:X:X:X:X:X:X:X= 5 ; :X:X:X:X'.P.K.7.5 ` 4 u k.C.A.F.R.F.A.K.#X:X:X:X:X:Xz D g X ",
":X:X:X:X:X:X:X:X@ 5 y ( :Xi <.P.J.P.k.q D & { C.A.F.E.E.E.A.A.E./.:X:X:XD I D P 3 ",
":X:X:X[ :X:X:X:XX y q - s D `.D.K.K.7.q z q k.A.T.6.J..X.XR.F.:._ s s D h w P P = ",
":X:XD 6.:X:X:X:X@ = & y 5 =.H.H.K.K.5.5 g E C.F.4.k. XXXXX~.F.q w y q s g l y ; X ",
":X:X*.P.:X:X:X:X:XX & ; ; *.S.&.J.R.7.5 y ;.C.3.:.R.XXXXXX XD.= y y q y a y t X :X",
":Xw Y.OX:X:X:X:X:X:XX = 5 4.7.5.J.K.5.q y k.N.>.F.}..X.X X XT.& q q 4 $ - - & :X:X",
":XU E.@X:X:X:X:X:X:X:X= y 7.3.3.J.K.S.q f h.C.Z.R.|.|.|.|.|.W.d - - - * & & :X:X:X",
":X=.}.#X:X:X:X:X:X:X:X:Xz j.5.S.J.P.D.q E C.K.W.).|.}.|.|.|.).;.d u f ; :X:X:X:X:X",
":X4.XX%XoX:X:X:X:X:X:X:Xh R W +.B.G.K.&.J.E.Q.Q.V.g./ / +.A.W.N.>.j._.:X:X:X:X:X:X",
":Xk.XX#X&X:X:X:X:X:X:X:X:X, > 7 < ^ U.K.U.g.A > < 7 : O O e ~.k.>.>.oX:X:X:X:X:X:X",
":X:. X@X*X:X:X:X:X:X:X:X:X6 H l.G 6 h.J.M., 9 V s.x.s.n # O Q.5.,.;.oX:X:X:X:X:X:X",
":X{ }.OX&X+X:X:X:X:X:X:X:Xx z.n.y.9 ! U.Z b B a.m.n.n.l.c X !.3.:.-.{.:X:X:X:X:X:X",
":Xl ).}.#X%X:X:X:X:X:X:X:XN z.n.a.V A -.x C H x.n.n.n.b.G % !.,.;.-.`.:X:X:X:X:X:X",
":X& R.(.@X$X_.:X:X:X:X:X:XN i.b.y.B m A K C H z.n.n.m.a.7 A G.;.-.-.`.:X:X:X:X:X:X",
":X:X:.Y.oXOX_.:X:X:X:X:XI.T 7 G v v v v V C B C e.i.q.8 + @.H.%.%.$.(.:X:X:X:X:X:X",
":X:X) I.Y.OX:X:X:X:X:X:X^.h.~ W , 9 m v c c A r % # O 2 +.D.5.$.$.$.^.:X:X:X:X:X:X",
":X:Xg k.H.(._.:X:X:X:X:X^.7.3.$.3 1 1 1 1 1 | j.B.M.M.G.D.D.:.X.] X.L.:X:X:X:X:X:X",
":X:X:X] ) 3._.L.9.:X:X:XI.5.:.#.+ : : > > > z 6.4.S.H.k.S.7.{ ' { X.6.:X:X:X:X:X:X",
":X:X:Xl f &.7._.`.9.:X:Xj.7.-._ o # # # # # p j.o.*.j.j.7.*.X.o.X.{ &.:X:X:X:X:X:X",
":X:X:X:X:XO.2.(.(.`.:X:X8.3.*.p o o O o O o 2 j.o.o.o.$.$.{ { { { #. .:X:X:X:X:X:X",
":X:X:X:X:XP *.L.^.'.:X:X9.1.o.3 o o o o o o % <.o.{ {  .{ o.X.o.6. .:X:X:X:X:X:X:X",
":X:X:X:X:X:XI :./.OX:X:X:X1.o.3   o o o o o + [ o.{ o.} o.<.L.^.:X:X:X:X:X:X:X:X:X",
":X:X:X:X:X:X:X] 8.'.:X:X:X:X..:X:X; . .       I  .$.<.! R ..:X:X:X:X:X:X:X:X:X:X:X",
":X:X:X:X:X:X:XY #.L.:X:X:X:X:X:X:Xt = l * * = u l l k N B y :X:X:X:X:X:X:X:X:X:X:X",
":X:X:X:X:X:X:X:Xz <.i y :X:X:X:X:Xz _ f q F W w q | S * d l :X:X:X:X:X:X:X:X:X:X:X",
":X:X:X:X:X:X:X:X:Xt ; y :X:X:X:X:X[ *.3 r.p.c.F u 7.] 3 $.S.h :X:X:X:X:X:X:X:X:X:X",
":X:X:X:X:X:X:X:X@ X - y :X:X:XJ } ] 8.6 c.p.p.u.j J.#.' T K.;.:X:X:X:X:X:X:X:X:X:X",
":X:X:X:X:X:X:X:X:Xy - i k z i 2 L j 8.6 v.0.t.w.U K.3.X.[ ) R F :X:X:X:X:X:X:X:X:X",
":X:X:X:X:X:X:X:X:X:Xi ; ; t u q b Q 3.3 w.f.p.M } K.8.#.] d.J 0 e :X:X:X:X:X:X:X:X",
":X:X:X:X:X:X:X:X:X:X. & - 3 d q y T 2.q s B r i o.J.*.o._ % ; q q :X:X:X:X:X:X:X:X",
":X:X:X:X:X:X:X:X:X:X& = t i q z =X` l - t u u u { #.] [ S f y d w ; :X:X:X:X:X:X:X",
":X:X:X:X:X:X:X:X:X:X:XX ; q y +X+X=.P g d I f l ) [ ` ` l l u g a - :X:X:X:X:X:X:X",
":X:X:X:X:X:X:X:X:X:X:X:XX = _ -X^.&.] 2 t P f ) U z l T  .y u d u - :X:X:X:X:X:X:X",
":X:X:X:X:X:X:X:X:X:X:X:X:X; ; $X2.P Q q u q ; k U S { =.*.a ; ; = = :X:X:X:X:X:X:X",
":X:X:X:X:X:X:X:X:X:X:X:X:X:X:X:X6.~ r * i q t :X~ e ' { [ l X $ & :X:X:X:X:X:X:X:X",
":X:X:X:X:X:X:X:X:X:X:X:X:X:X:X:X:Xt q % t t ; :Xj - w u - ; :X:X:X:X:X:X:X:X:X:X:X",
":X:X:X:X:X:X:X:X:X:X:X:X:X:X:X:X:Xf ; - & X p :Xi q ; ; = + :X:X:X:X:X:X:X:X:X:X:X",
":X:X:X:X:X:X:X:X:X:X:X:X:X:X:X:X* u u w ; & ; :Xu y w q - X :X:X:X:X:X:X:X:X:X:X:X",
":X:X:X:X:X:X:X:X:X:X:X:X:X:X:X:X@ & t ; = @ X :X& y i ; $ X :X:X:X:X:X:X:X:X:X:X:X",
":X:X:X:X:X:X:X:X:X:X:X:X:X:X:X:X:X:X@ @ @ & :X:X@ @ X @ & :X:X:X:X:X:X:X:X:X:X:X:X"
};
