/* XPM */
static char *_0ff7b9e3bea48e5c798bd2172ad5d6acb6Nce4T9SFmBsjD[] = {
/* columns rows colors chars-per-pixel */
"50 50 34 1 ",
"  c #161414",
". c #1C1514",
"X c #1E1816",
"o c #1E1B1B",
"O c #201717",
"+ c #221D1C",
"@ c #291F1E",
"# c #23201E",
"$ c #262322",
"% c #2A2524",
"& c #2B2827",
"* c #2E2B2A",
"= c #352A27",
"- c #322D2D",
"; c #382E2C",
": c #32302F",
"> c #39312E",
", c #372F30",
"< c #353331",
"1 c #3A3534",
"2 c #3B3937",
"3 c #3E3A39",
"4 c #403836",
"5 c #423D3C",
"6 c #42413F",
"7 c #49423F",
"8 c #473F40",
"9 c #464341",
"0 c #4A4544",
"q c #4A4846",
"w c #4F4748",
"e c #4D4A49",
"r c #524C4C",
"t c #51504E",
/* pixels */
"134533,3335332333333238233333,,3355313545443>&2424",
"13355445368666313834588888384318388535885556524531",
"43580080639q9qqq0088ewqq80www880qweq0000w7-7953513",
"555-%,4*&#&:6:&&**3,****21***&,3***&*4,*=#+2,$%843",
"328*+,3%&&&:9&&&%&3,$%&&21$%&$,6&&&&*8*%#+%5;O$933",
"38w*$18*:::<q:::*,01*,**63&,,*2q:*::,w,==--9,%&963",
"38e*$18*:<<2t*:<<<e2*<<-88*<,*3q*<<,<e,,:--1,&&q93",
"88w*%28-<<<2t<<<<<q2,,<<86&:<:5q,,<<2e,,-:;1,$*w95",
"38w*$19*<<,1r><1::q<::<:66*<<:3e,,-,<e,*@,1w1%*w95",
"88w*o,3*<<:1r::<:<t6:::<66*<<:3e,%%,<r-**,-81*=w95",
"68w,o*&$<:<2t::<:<q2:$*:66*<<:3q***,<e,-,*-01%*895",
"58w*$18*:<<<r:::::q2*o#&q6*<<<3e*<,,1r<,-,,83%*w95",
"58w-$18*:::<q:::::q2:&#*66*<<:3q,,,,,w1=-,,83$*w95",
"28w*$<3*::*&+#&::$q:*:&*63&:::2q*-*.,w,%%-,81$%w85",
"550*#:3&***&*#o*&:6:&&&&33&*-*<8=*$X*w*$%**8,$%q85",
"5881:23696669222<662388688688688<,3380833568433095",
"36q626qqqqqqqqqqqq6qq88$&88r888r9w00708;;0w0098095",
"22q<::2:<2<<6<<<::62<:<<33113338,1>:151%=;>43,,083",
"336&o*2$&$$&6$o$o$6:$$$o1<$$&$:8$@@+&9=++$&4,+$q33",
"23q*o:2*:**:t:**::6:&:**55&--*19*%---w-**=-5,$&q63",
"3*6-o26*:::<t:::::q2*:::85*::-2q*&--*3*----0<%&q63",
"2oq* ::&<<<2t:*:::q<-<<:98-:<<1q=+=-,w=---,w3%&996",
",$9-o::*:<<:t:$o#:q:*<<<98-::<1e#.+<1r*-,-1w4%%966",
"3<8-o:6:<<<2t:::::9:-<<<68*--<38$+&,1w-,,,,w3%*063",
"338,$18<<<<2t:::<<8%::<<65-::,38:&<<2e,-,,,w3%-w63",
"118*&19-<<22t<:o*<8-*<<:81&*-:58**:*1t<,,,,04%*w93",
"1*8*$26*<<:2t::*:<e3::<:55*&::3q*::&1r<,<,,w3%%wq8",
"1*8,$26:<<<<t<*:<<81<<<:95--<<3q::<<1r1,<,,83%*w93",
"33q*$29:<2<2t::*<<q1:<<:98-,<<2q::::1t1<<,,01$%w96",
"369*$39::<<2q:::<:q2:<<:63-:<:3q:<::,r<-<<-83$*w93",
"66q*$<9*::*:q:*:<*6<&*:*31****29*:-*,e<-:-*6,$%w88",
"33q*$:6:::*:q:*<**6<*::-21*:**29*-:-,8-*:--61$%q83",
"538326q99qq9q6qqq6663qww869q8qw8qqwq88wq8eq8883883",
"3,986q9qqqqqqqqqq6888ww889q9e88ewwwww88wwew8886q88",
"338-&<3-<:*:6<***:3:----3<****<8,-*--8,--,,3,*&883",
"138&o<6%&&&*q&&&&o3:+&&%32$&&&,8&%%%*8*&&&&5,+&885",
",,5%@38**::<t:**:&<*#*:*33*---38--,-,r,-:::81%%w85",
"++8-%48*:::2q:::<<9<*:::66,<,,5w-,<,1r<,<<<q1%*w8-",
"318-$38,:<:2t:::<<q2*<<:98:<<,6w,,111r1<<<<w1%&w83",
"318-%38,:2:<t::<<<q2:<2:98-11,3w,,<11r3,22,88%&w83",
"339*$2q::2:2t:<2*:q2:<::98-<<<4w,,113r2<<<:q3%&883",
"363&$2q::2:2t::<:<q2:<2:98-<<,3w,,,,1t1<<<:q3$*w84",
"236&$6q:<<<2t2:2<<q2:<<:99-1<,3w<<,1,r<<22<6,$*844",
"35q*$26:<<<2t:::<<e2::<:99*<<,3w<<<,1w1,<<<q3%%w44",
"338*$2q:::::t:::--q<*:<*36*:--3w-<*<,r,*-,,8,@$,44",
"318&#:6&**$:q&&&&*6:&**&22&**%<8*&&&*8,***%3,o+%,,",
"188*#:6&&*::6:****6<&***12&&*%,3***&-8-***%1*O%4,3",
"3188qq6qqqqqq6qqwqqqqeeqqq0q059qqeee000eeq88@@84,,",
"1338881*66663666588588666868,o-8666666688563X+,313",
"331833-$13633333333333633653,.%3666323358222@+=1-3"
};
